<?xml version="1.0" standalone="no"?>
<!DOCTYPE svg PUBLIC "-//W3C//DTD SVG 20010904//EN"
 "http://www.w3.org/TR/2001/REC-SVG-20010904/DTD/svg10.dtd">
<svg version="1.0" xmlns="http://www.w3.org/2000/svg"
 width="109.000000pt" height="109.000000pt" viewBox="0 0 109.000000 109.000000"
 preserveAspectRatio="xMidYMid meet">
<metadata>
Created by potrace 1.11, written by Peter Selinger 2001-2013
</metadata>
<g transform="translate(0.000000,109.000000) scale(0.100000,-0.100000)"
fill="#000000" stroke="none">
<path d="M945 1069 c-42 -16 -69 -18 -173 -15 l-122 4 -25 -32 c-14 -18 -25
-45 -25 -61 0 -24 3 -26 23 -20 12 4 73 10 135 12 l112 5 1 -33 c1 -19 3 -187
5 -374 3 -296 2 -348 -13 -398 -13 -45 -23 -62 -45 -73 -15 -8 -28 -19 -28
-24 0 -6 -11 -10 -24 -10 -53 0 -32 -41 21 -42 36 -1 81 22 120 62 56 58 62
106 63 544 0 378 1 390 21 423 29 46 15 55 -46 32z"/>
<path d="M66 1043 c-3 -6 3 -22 13 -35 30 -39 33 -57 38 -254 5 -204 -8 -363
-32 -401 -8 -12 -15 -31 -15 -43 0 -19 6 -20 89 -20 95 0 114 9 86 40 -30 33
-42 100 -40 218 2 125 6 135 60 125 30 -5 39 -14 92 -86 15 -21 39 -50 51 -65
32 -36 92 -139 92 -157 0 -8 -9 -20 -20 -28 -12 -9 -18 -20 -14 -30 4 -13 26
-16 105 -19 55 -2 104 -1 109 0 21 7 8 32 -48 94 -31 36 -82 95 -112 132 -30
37 -66 80 -80 95 -55 61 -54 58 -18 77 103 52 141 146 103 254 -17 48 -29 59
-96 95 -44 23 -55 24 -203 22 -109 -1 -157 -6 -160 -14z m313 -68 c80 -41 80
-185 -1 -235 -23 -14 -47 -20 -82 -18 -76 3 -83 14 -83 147 -1 100 1 113 17
119 32 12 116 5 149 -13z"/>
</g>
</svg>
